<svg xmlns="http://www.w3.org/2000/svg" viewBox="0 0 1800 1080" width="100%" preserveAspectRatio="xMidYMid meet" font-family="ui-monospace, SFMono-Regular, 'SF Mono', Menlo, Monaco, Consolas, monospace">
  <!-- Palette: OpenCompany dark-theme tokens (client/src/themes/dark.css surfaces/fg + light.css Dracula accents) -->
  <defs>
    <marker id="arrow" viewBox="0 0 10 10" refX="9" refY="5" markerWidth="8" markerHeight="8" orient="auto-start-reverse">
      <path d="M0,0 L10,5 L0,10 z" fill="#e8eaed"/>
    </marker>
    <style>
      .bg { fill: #0d0f13; }
      .panel { fill: #15171c; stroke-width: 2; }
      .p-cyan { stroke: #8be9fd; } .p-purple { stroke: #bd93f9; } .p-orange { stroke: #ffb86c; } .p-green { stroke: #50fa7b; } .p-pink { stroke: #ff79c6; }
      .title { fill: #e8eaed; font-size: 20px; font-weight: 700; }
      .h1 { fill: #e8eaed; font-size: 18px; font-weight: 700; }
      .h2 { fill: #e8eaed; font-size: 14px; font-weight: 700; }
      .sub { fill: #e8eaed; font-size: 12px; }
      .small { fill: #e8eaed; font-size: 10px; }
      .label { fill: #f1fa8c; font-size: 11px; font-style: italic; }
      .conn { stroke: #e8eaed; stroke-width: 1.8; fill: none; }
      .conn-dot { stroke: #9aa1ac; stroke-width: 1.5; fill: none; stroke-dasharray: 4 4; }
      .box { fill: #1b1e25; stroke-width: 1.5; }
      .tier-label { fill: #9aa1ac; font-size: 11px; text-transform: uppercase; letter-spacing: 1px; }
      .accent-cyan { fill: #8be9fd; } .accent-purple { fill: #bd93f9; } .accent-green { fill: #50fa7b; } .accent-orange { fill: #ffb86c; } .accent-pink { fill: #ff79c6; }
          .title, .h1, .h2 { font-family: 'Geist Variable', system-ui, -apple-system, BlinkMacSystemFont, 'Segoe UI', Roboto, sans-serif; }
    </style>
  </defs>
  <rect class="bg" width="1800" height="1080"/>

  <text class="title" x="900" y="44" text-anchor="middle">OpenCompany - System Overview</text>
  <text class="sub" x="900" y="70" text-anchor="middle">FastAPI plugin backend + React Flow client + sidecar processes (single-machine dev topology)</text>

  <!-- ===== Tier: Browser ===== -->
  <text class="tier-label" x="230" y="96">BROWSER</text>
  <rect class="panel p-cyan" x="230" y="104" width="960" height="110" rx="10"/>
  <rect class="box p-cyan" x="500" y="118" width="420" height="82" rx="8"/>
  <text class="h2" x="710" y="144" text-anchor="middle">React Flow client</text>
  <text class="sub" x="710" y="163" text-anchor="middle">client/ - Vite dev :5679</text>
  <text class="sub" x="710" y="181" text-anchor="middle">React 19 + Tailwind v4 + shadcn/ui + Zustand</text>

  <!-- Browser <-> Backend -->
  <path class="conn" d="M 558 218 L 558 314" marker-end="url(#arrow)"/>
  <path class="conn" d="M 568 314 L 568 218" marker-end="url(#arrow)"/>
  <text class="label" x="546" y="270" text-anchor="end">WebSocket /ws/status</text>
  <path class="conn" d="M 860 218 L 860 314" marker-end="url(#arrow)"/>
  <text class="label" x="874" y="270">REST /api/*</text>

  <!-- Inbound webhook into backend left edge -->
  <path class="conn" d="M 40 430 L 226 430" marker-end="url(#arrow)"/>
  <text class="label" x="130" y="414" text-anchor="middle">/webhook/{path} (inbound)</text>

  <!-- ===== Tier: Python backend ===== -->
  <text class="tier-label" x="230" y="310">PYTHON BACKEND</text>
  <rect class="panel p-purple" x="230" y="318" width="960" height="324" rx="10"/>
  <text class="h1" x="710" y="348" text-anchor="middle">Python backend - FastAPI :5678 (server/)</text>

  <rect class="box p-purple" x="250" y="368" width="435" height="70" rx="8"/>
  <text class="h2" x="467" y="395" text-anchor="middle">WS + REST dispatch</text>
  <text class="small" x="467" y="417" text-anchor="middle">core MESSAGE_HANDLERS + plugin ws_handler_registry</text>

  <rect class="box p-purple" x="735" y="368" width="435" height="70" rx="8"/>
  <text class="h2" x="952" y="395" text-anchor="middle">WorkflowService -&gt; NodeExecutor</text>
  <text class="sub" x="952" y="417" text-anchor="middle">ParameterResolver {{node.field}}</text>

  <rect class="box p-purple" x="250" y="456" width="435" height="84" rx="8"/>
  <text class="h2" x="467" y="483" text-anchor="middle">Node plugins (115+)</text>
  <text class="small" x="467" y="503" text-anchor="middle">server/nodes/&lt;group&gt;/&lt;plugin&gt;/</text>
  <text class="small" x="467" y="521" text-anchor="middle">Pydantic Params/Output = SSOT</text>

  <rect class="box p-purple" x="735" y="456" width="435" height="84" rx="8"/>
  <text class="h2" x="952" y="483" text-anchor="middle">AuthService</text>
  <text class="sub" x="952" y="507" text-anchor="middle">Fernet + PBKDF2 encrypted credentials</text>

  <rect class="box p-purple" x="250" y="558" width="920" height="64" rx="8"/>
  <text class="h2" x="710" y="584" text-anchor="middle">Execution engine</text>
  <text class="sub" x="710" y="607" text-anchor="middle">Temporal -&gt; Redis-parallel -&gt; sequential (auto-fallback)</text>

  <!-- Backend -> Sidecars -->
  <path class="conn" d="M 710 646 L 710 722" marker-end="url(#arrow)"/>
  <text class="label" x="724" y="688">spawns / calls</text>

  <!-- ===== Tier: Sidecar processes ===== -->
  <text class="tier-label" x="230" y="718">SIDECAR PROCESSES</text>
  <rect class="panel p-orange" x="230" y="726" width="960" height="120" rx="10"/>

  <rect class="box p-orange" x="250" y="746" width="215" height="80" rx="8"/>
  <text class="h2" x="357" y="772" text-anchor="middle">Node.js executor :5682</text>
  <text class="small" x="357" y="792" text-anchor="middle">Express + tsx</text>
  <text class="small" x="357" y="808" text-anchor="middle">JS/TS code nodes</text>

  <rect class="box p-orange" x="485" y="746" width="215" height="80" rx="8"/>
  <text class="h2" x="592" y="772" text-anchor="middle">WhatsApp RPC :5683</text>
  <text class="small" x="592" y="792" text-anchor="middle">Go whatsmeow binary</text>

  <rect class="box p-orange" x="720" y="746" width="215" height="80" rx="8"/>
  <text class="h2" x="827" y="772" text-anchor="middle">Temporal server</text>
  <text class="small" x="827" y="792" text-anchor="middle">gRPC :5681 - Web UI :5680</text>

  <rect class="box p-orange" x="955" y="746" width="215" height="80" rx="8"/>
  <text class="h2" x="1062" y="772" text-anchor="middle">Temporal workers</text>
  <text class="small" x="1062" y="792" text-anchor="middle">manager + per-queue</text>
  <text class="small" x="1062" y="808" text-anchor="middle">worker pool</text>

  <!-- Backend -> Storage (routed around sidecar tier) -->
  <path class="conn" d="M 230 610 L 170 610 L 170 985 L 226 985" marker-end="url(#arrow)"/>
  <text class="label" x="162" y="800" text-anchor="end">read/write</text>

  <!-- ===== Tier: Storage ===== -->
  <text class="tier-label" x="230" y="922">STORAGE</text>
  <rect class="panel p-pink" x="230" y="930" width="960" height="110" rx="10"/>
  <rect class="box p-pink" x="250" y="950" width="920" height="70" rx="8"/>
  <text class="h2" x="710" y="977" text-anchor="middle">~/.opencompany/</text>
  <text class="sub" x="710" y="1000" text-anchor="middle">workflow.db - credentials.db - temporal.db - Redis cache/locks (optional)</text>

  <!-- Backend / Sidecars -> External services -->
  <path class="conn" d="M 1194 480 L 1316 480" marker-end="url(#arrow)"/>
  <text class="label" x="1255" y="464" text-anchor="middle">HTTP / SDK / CLI</text>
  <path class="conn" d="M 1194 786 L 1316 786" marker-end="url(#arrow)"/>
  <text class="label" x="1255" y="770" text-anchor="middle">HTTP / SDK / CLI</text>

  <!-- ===== External services (right column) ===== -->
  <text class="tier-label" x="1320" y="96">EXTERNAL SERVICES</text>
  <rect class="panel p-green" x="1320" y="104" width="440" height="936" rx="10"/>
  <text class="h1" x="1540" y="134" text-anchor="middle">External services</text>

  <rect class="box p-green" x="1340" y="152" width="400" height="100" rx="8"/>
  <text class="h2" x="1540" y="177" text-anchor="middle">LLM providers (12)</text>
  <text class="sub" x="1540" y="197" text-anchor="middle">OpenAI, Anthropic, Gemini, OpenRouter, xAI,</text>
  <text class="sub" x="1540" y="215" text-anchor="middle">DeepSeek, Kimi, Mistral, Groq, Cerebras</text>
  <text class="sub" x="1540" y="233" text-anchor="middle">local: Ollama, LM Studio</text>

  <rect class="box p-green" x="1340" y="280" width="400" height="60" rx="8"/>
  <text class="h2" x="1540" y="305" text-anchor="middle">Google Workspace</text>
  <text class="sub" x="1540" y="325" text-anchor="middle">Gmail, Calendar, Drive, Sheets, Tasks, Contacts</text>

  <rect class="box p-green" x="1340" y="368" width="400" height="60" rx="8"/>
  <text class="h2" x="1540" y="393" text-anchor="middle">Messaging</text>
  <text class="sub" x="1540" y="413" text-anchor="middle">WhatsApp, Telegram, Twitter/X</text>

  <rect class="box p-green" x="1340" y="456" width="400" height="60" rx="8"/>
  <text class="h2" x="1540" y="481" text-anchor="middle">Search APIs</text>
  <text class="sub" x="1540" y="501" text-anchor="middle">DuckDuckGo (free), Brave, Serper, Perplexity</text>

  <rect class="box p-green" x="1340" y="544" width="400" height="60" rx="8"/>
  <text class="h2" x="1540" y="569" text-anchor="middle">Web scraping</text>
  <text class="sub" x="1540" y="589" text-anchor="middle">Apify actors, Crawlee, residential proxies</text>

  <rect class="box p-green" x="1340" y="632" width="400" height="60" rx="8"/>
  <text class="h2" x="1540" y="657" text-anchor="middle">Dev CLIs</text>
  <text class="sub" x="1540" y="677" text-anchor="middle">GitHub (gh), Vercel, Stripe</text>

  <rect class="box p-green" x="1340" y="720" width="400" height="60" rx="8"/>
  <text class="h2" x="1540" y="745" text-anchor="middle">Device</text>
  <text class="sub" x="1540" y="765" text-anchor="middle">Android via relay - 16 service nodes</text>

  <rect class="box p-green" x="1340" y="808" width="400" height="60" rx="8"/>
  <text class="h2" x="1540" y="833" text-anchor="middle">Vector + RAG</text>
  <text class="sub" x="1540" y="853" text-anchor="middle">ChromaDB, Qdrant, Pinecone</text>

  <rect class="box p-green" x="1340" y="896" width="400" height="60" rx="8"/>
  <text class="h2" x="1540" y="921" text-anchor="middle">Maps</text>
  <text class="sub" x="1540" y="941" text-anchor="middle">Google Maps Geocoding + Places</text>
</svg>
